<svg id="svg" xmlns="http://www.w3.org/2000/svg" xmlns:xlink="http://www.w3.org/1999/xlink" width="400" height="400" viewBox="0, 0, 400,400"><g id="svgg"><path id="path0" d="M307.728 65.223 C 306.368 65.401,304.799 65.844,304.241 66.210 C 303.684 66.575,301.829 67.048,300.120 67.260 C 298.411 67.472,296.740 67.878,296.406 68.162 C 295.479 68.952,294.640 69.165,290.694 69.612 C 288.691 69.839,286.837 70.204,286.573 70.423 C 285.965 70.927,280.417 72.000,278.416 72.000 C 277.583 72.000,276.085 72.361,275.086 72.803 C 273.896 73.330,271.741 73.729,268.826 73.963 C 265.762 74.210,264.050 74.537,263.317 75.018 C 262.562 75.512,260.622 75.862,256.627 76.224 C 253.532 76.505,249.953 77.006,248.674 77.337 C 247.394 77.669,243.370 78.144,239.732 78.393 C 236.093 78.642,232.820 78.996,232.458 79.180 C 231.039 79.902,227.549 80.388,222.000 80.638 C 218.810 80.782,215.643 81.126,214.963 81.403 C 213.108 82.158,208.800 82.726,203.096 82.968 C 199.427 83.123,197.627 83.374,196.696 83.858 C 195.794 84.328,193.697 84.642,189.800 84.890 C 184.229 85.244,180.947 85.695,178.537 86.437 C 177.842 86.650,174.242 86.981,170.537 87.172 C 165.375 87.438,163.240 87.716,161.405 88.363 C 159.634 88.986,157.652 89.262,153.805 89.418 C 148.555 89.631,145.865 90.004,142.200 91.023 C 141.100 91.329,137.860 91.695,135.000 91.836 C 131.313 92.018,129.304 92.306,128.097 92.825 C 126.951 93.318,124.924 93.634,121.897 93.792 C 117.079 94.043,113.492 94.603,112.200 95.306 C 111.760 95.545,107.800 95.967,103.400 96.244 C 99.000 96.520,94.860 96.856,94.200 96.989 C 93.540 97.123,92.010 97.418,90.800 97.644 C 89.590 97.871,83.163 98.180,76.517 98.331 C 67.736 98.531,64.298 98.742,63.937 99.103 C 63.648 99.392,62.404 99.600,60.966 99.600 C 57.074 99.600,54.473 100.605,54.169 102.227 C 53.856 103.891,54.281 105.869,55.012 106.149 C 55.321 106.268,55.831 106.958,56.144 107.683 C 56.456 108.407,57.295 109.450,58.008 110.000 C 58.721 110.550,59.760 111.495,60.318 112.100 C 60.876 112.705,61.578 113.200,61.879 113.200 C 62.179 113.200,62.529 113.470,62.655 113.800 C 62.782 114.130,63.631 114.731,64.543 115.135 C 65.454 115.539,66.447 116.169,66.749 116.535 C 67.051 116.901,67.701 117.200,68.194 117.200 C 68.687 117.200,69.769 117.740,70.600 118.400 C 71.431 119.060,72.500 119.600,72.977 119.600 C 73.454 119.600,74.434 120.035,75.155 120.567 C 75.881 121.102,77.340 121.654,78.425 121.803 C 79.503 121.952,80.881 122.462,81.486 122.936 C 82.864 124.016,87.340 124.051,88.953 122.994 C 89.501 122.635,91.080 122.077,92.460 121.755 C 93.841 121.433,95.284 120.886,95.666 120.540 C 96.093 120.154,97.702 119.764,99.831 119.530 C 102.133 119.277,103.655 118.891,104.351 118.384 C 105.099 117.839,106.548 117.510,109.400 117.240 C 111.653 117.027,113.986 116.564,114.743 116.180 C 115.481 115.805,118.091 115.272,120.543 114.994 C 122.994 114.716,125.540 114.211,126.200 113.872 C 126.860 113.533,129.089 113.069,131.153 112.842 C 133.545 112.578,135.162 112.196,135.614 111.787 C 136.083 111.363,137.858 110.970,140.861 110.627 C 143.358 110.342,146.035 109.829,146.811 109.487 C 147.586 109.144,150.461 108.648,153.198 108.384 C 156.219 108.093,158.537 107.667,159.097 107.300 C 159.698 106.906,161.999 106.533,165.709 106.229 C 168.839 105.973,171.760 105.569,172.200 105.331 C 173.281 104.748,177.809 104.000,180.254 104.000 C 182.831 104.000,184.613 105.639,185.036 108.400 C 185.188 109.390,185.681 110.920,186.131 111.800 C 186.743 112.996,187.015 114.532,187.208 117.878 C 187.349 120.341,187.658 122.591,187.894 122.878 C 189.170 124.430,189.508 146.502,189.557 231.445 C 189.600 306.157,189.539 309.755,188.210 310.498 C 187.892 310.676,187.511 311.492,187.363 312.311 C 186.880 314.991,185.015 317.165,182.452 318.035 C 180.144 318.820,171.731 318.343,169.800 317.318 C 168.920 316.852,166.792 316.290,165.071 316.071 C 163.162 315.828,161.650 315.407,161.191 314.992 C 160.696 314.544,159.234 314.180,156.919 313.927 C 154.984 313.716,152.612 313.196,151.649 312.771 C 150.686 312.347,149.156 311.992,148.249 311.983 C 147.342 311.973,145.816 311.814,144.858 311.629 C 141.318 310.945,139.789 312.393,141.782 314.543 C 142.342 315.147,142.800 315.906,142.800 316.229 C 142.800 316.553,143.247 317.021,143.792 317.269 C 144.338 317.518,144.882 318.027,145.000 318.400 C 145.118 318.773,145.667 319.284,146.219 319.536 C 146.771 319.787,147.327 320.265,147.454 320.597 C 147.581 320.928,147.867 321.200,148.088 321.200 C 148.653 321.200,153.263 324.712,153.910 325.636 C 154.205 326.056,154.633 326.400,154.862 326.400 C 155.091 326.400,155.846 326.947,156.540 327.616 C 158.929 329.919,159.485 330.400,159.764 330.400 C 160.019 330.400,163.843 333.542,167.113 336.437 C 167.836 337.077,168.572 337.600,168.749 337.600 C 168.927 337.600,169.277 338.050,169.527 338.600 C 169.778 339.150,170.212 339.600,170.493 339.600 C 170.773 339.600,171.512 340.140,172.135 340.800 C 172.758 341.460,173.420 342.000,173.607 342.000 C 173.793 342.000,174.060 342.360,174.200 342.800 C 174.340 343.240,174.682 343.600,174.961 343.600 C 175.240 343.600,175.952 344.095,176.545 344.700 C 177.137 345.305,178.864 346.880,180.382 348.200 C 181.899 349.520,185.152 352.535,187.609 354.900 L 192.077 359.200 194.225 359.200 C 195.923 359.200,196.457 359.041,196.777 358.442 C 197.001 358.025,197.727 357.495,198.392 357.263 C 199.056 357.031,199.600 356.572,199.600 356.243 C 199.600 355.915,199.933 355.410,200.340 355.123 C 200.748 354.835,201.401 353.970,201.791 353.200 C 202.182 352.430,202.839 351.478,203.251 351.084 C 203.663 350.691,204.000 349.940,204.000 349.415 C 204.000 348.891,204.430 347.951,204.955 347.327 C 205.480 346.703,206.101 345.498,206.335 344.649 C 206.570 343.800,207.017 342.812,207.330 342.453 C 207.643 342.094,208.119 340.857,208.388 339.705 C 208.657 338.552,209.191 337.202,209.574 336.705 C 209.956 336.207,210.480 334.720,210.738 333.400 C 210.995 332.080,211.473 330.802,211.799 330.559 C 212.154 330.295,212.567 328.850,212.828 326.959 C 213.068 325.222,213.615 322.757,214.043 321.481 C 215.545 317.006,215.094 285.160,213.412 277.000 C 213.276 276.340,212.991 268.780,212.777 260.200 C 212.360 243.428,211.996 237.408,211.264 235.203 C 210.627 233.285,210.635 161.420,211.273 158.800 C 211.810 156.589,212.286 148.201,212.726 133.200 C 213.008 123.568,213.174 121.521,213.796 120.000 C 214.953 117.171,215.083 111.886,214.029 110.546 C 213.573 109.967,213.200 109.253,213.200 108.962 C 213.200 108.363,210.627 105.703,209.044 104.665 C 205.420 102.291,211.207 100.104,222.000 99.770 C 228.261 99.576,234.685 98.826,237.466 97.965 C 238.163 97.749,242.303 97.397,246.666 97.182 C 251.030 96.968,255.770 96.609,257.200 96.386 C 263.246 95.440,280.787 94.282,288.400 94.326 C 306.808 94.433,331.822 95.564,336.200 96.487 C 343.591 98.046,350.049 96.356,350.557 92.731 C 351.098 88.877,347.903 82.834,345.309 82.805 C 345.039 82.802,344.524 82.350,344.163 81.800 C 343.803 81.250,343.283 80.800,343.009 80.800 C 342.734 80.800,342.080 80.384,341.555 79.875 C 341.030 79.366,339.945 78.647,339.144 78.277 C 338.342 77.907,337.592 77.356,337.476 77.053 C 337.360 76.751,336.755 76.377,336.132 76.223 C 335.510 76.069,334.550 75.526,334.000 75.016 C 333.450 74.507,332.550 73.954,332.000 73.788 C 331.450 73.621,330.781 73.175,330.514 72.795 C 330.247 72.416,329.446 71.989,328.734 71.847 C 328.021 71.704,327.070 71.247,326.619 70.830 C 326.169 70.413,325.042 69.870,324.115 69.624 C 323.188 69.378,322.192 68.838,321.901 68.423 C 321.610 68.008,320.702 67.543,319.883 67.389 C 319.063 67.235,317.950 66.761,317.409 66.336 C 316.868 65.910,315.385 65.392,314.113 65.183 C 311.544 64.763,311.252 64.764,307.728 65.223 " stroke="none" fill="#050505" fill-rule="evenodd"></path><path id="path1" d="M0.000 200.000 L 0.000 400.000 200.000 400.000 L 400.000 400.000 400.000 200.000 L 400.000 0.000 200.000 0.000 L 0.000 0.000 0.000 200.000 M313.520 62.949 C 314.114 63.251,315.613 63.621,316.852 63.772 C 318.492 63.971,319.353 64.311,320.021 65.023 C 320.526 65.560,321.280 66.000,321.696 66.000 C 322.552 66.000,324.002 66.699,324.600 67.400 C 324.820 67.658,325.736 68.077,326.635 68.331 C 327.534 68.585,328.597 69.155,328.997 69.597 C 329.397 70.038,330.031 70.400,330.407 70.400 C 330.783 70.400,331.769 70.940,332.600 71.600 C 333.431 72.260,334.414 72.800,334.785 72.800 C 335.157 72.800,335.883 73.250,336.400 73.800 C 336.917 74.350,337.654 74.800,338.039 74.800 C 338.424 74.800,339.278 75.340,339.938 76.000 C 340.598 76.660,341.426 77.200,341.778 77.200 C 342.129 77.200,342.618 77.641,342.864 78.180 C 343.118 78.738,343.780 79.264,344.399 79.400 C 344.998 79.531,345.997 80.170,346.619 80.819 C 347.241 81.469,347.896 82.000,348.074 82.000 C 350.705 82.000,354.570 91.565,352.600 93.200 C 352.270 93.474,352.000 94.070,352.000 94.525 C 352.000 96.062,348.961 98.322,346.477 98.633 C 343.679 98.982,325.966 98.449,324.276 97.964 C 323.577 97.764,321.001 97.600,318.552 97.600 C 315.081 97.600,313.988 97.468,313.600 97.000 C 312.944 96.209,276.392 96.090,274.526 96.872 C 272.704 97.636,260.236 98.736,252.961 98.774 C 249.614 98.792,247.765 98.977,246.961 99.373 C 245.493 100.098,238.050 100.797,231.789 100.799 C 228.283 100.800,226.758 100.954,226.167 101.368 C 225.227 102.027,220.182 102.800,216.827 102.800 C 212.940 102.800,210.544 103.233,211.509 103.761 C 211.951 104.002,213.187 105.176,214.256 106.370 L 216.200 108.539 216.185 115.370 C 216.164 124.511,215.676 130.693,214.855 132.200 C 213.178 135.279,213.171 254.745,214.848 256.083 C 215.582 256.669,216.417 275.497,216.406 291.224 C 216.401 297.842,216.515 299.599,216.987 300.224 C 217.820 301.325,217.864 314.010,217.040 315.314 C 216.672 315.895,216.423 317.816,216.314 320.901 C 216.171 324.961,216.028 325.765,215.269 326.792 C 214.706 327.553,214.299 328.849,214.138 330.390 C 213.970 331.994,213.571 333.226,212.943 334.077 C 212.424 334.780,212.000 335.866,212.000 336.491 C 212.000 337.868,210.993 340.400,210.445 340.400 C 210.227 340.400,209.923 341.244,209.768 342.275 C 209.599 343.400,209.125 344.512,208.582 345.054 C 208.084 345.552,207.554 346.689,207.403 347.582 C 207.252 348.474,206.813 349.428,206.426 349.702 C 206.039 349.976,205.498 350.884,205.224 351.720 C 204.949 352.556,204.382 353.455,203.962 353.716 C 203.543 353.978,203.200 354.496,203.200 354.867 C 203.200 355.743,198.517 360.355,197.324 360.655 C 196.819 360.781,194.980 360.820,193.236 360.741 L 190.065 360.597 186.488 356.999 C 183.027 353.516,179.064 349.841,178.160 349.275 C 177.918 349.124,177.506 348.595,177.246 348.100 C 176.985 347.605,176.553 347.200,176.285 347.200 C 176.017 347.200,175.288 346.660,174.665 346.000 C 174.042 345.340,173.367 344.800,173.166 344.800 C 172.965 344.800,172.800 344.526,172.800 344.190 C 172.800 343.855,172.395 343.423,171.900 343.232 C 171.405 343.040,170.190 342.123,169.200 341.194 C 168.210 340.265,166.725 339.052,165.900 338.499 C 165.075 337.946,164.400 337.342,164.400 337.157 C 164.400 336.972,163.860 336.541,163.200 336.200 C 162.540 335.859,162.000 335.336,162.000 335.038 C 162.000 334.741,161.466 334.276,160.813 334.006 C 160.161 333.735,159.518 333.173,159.386 332.757 C 159.254 332.341,158.794 332.000,158.364 332.000 C 157.919 332.000,157.387 331.570,157.127 331.000 C 156.877 330.450,156.422 330.000,156.116 330.000 C 155.810 330.000,154.912 329.370,154.119 328.600 C 153.326 327.830,152.531 327.200,152.352 327.200 C 152.174 327.200,151.484 326.705,150.819 326.100 C 150.154 325.495,149.054 324.550,148.375 324.000 C 147.696 323.450,146.664 322.505,146.081 321.900 C 145.498 321.295,144.861 320.800,144.665 320.800 C 144.468 320.800,143.260 319.696,141.980 318.346 C 136.351 312.412,139.920 305.548,146.552 309.553 C 147.467 310.105,148.848 310.358,151.728 310.499 C 155.017 310.660,155.860 310.842,156.903 311.613 C 157.873 312.330,158.924 312.599,161.631 312.823 C 164.124 313.030,165.438 313.340,166.256 313.916 C 166.981 314.425,168.352 314.805,170.000 314.954 C 171.430 315.082,174.006 315.547,175.724 315.987 L 178.847 316.787 181.424 315.618 C 182.841 314.976,184.000 314.285,184.000 314.083 C 184.000 313.882,184.450 313.231,185.000 312.638 C 185.639 311.949,186.000 311.091,186.000 310.263 C 186.000 308.695,187.093 304.348,187.621 303.820 C 188.328 303.111,188.114 188.310,187.402 186.946 C 186.913 186.008,186.804 183.728,186.802 174.371 C 186.796 145.048,186.008 118.267,185.123 117.321 C 184.507 116.663,184.200 115.544,183.900 112.856 C 183.423 108.584,182.117 106.558,180.095 106.952 C 179.493 107.070,176.251 107.287,172.891 107.435 C 168.838 107.613,166.684 107.864,166.491 108.182 C 165.984 109.015,164.737 109.264,159.327 109.610 C 155.896 109.829,153.729 110.152,153.127 110.534 C 151.850 111.342,148.441 112.000,145.528 112.000 C 143.780 112.000,142.724 112.229,141.780 112.813 C 140.827 113.402,139.301 113.728,136.238 113.997 C 132.937 114.287,131.757 114.556,130.851 115.225 C 129.941 115.898,128.929 116.127,126.146 116.286 C 124.036 116.407,122.218 116.730,121.657 117.082 C 120.605 117.743,114.732 118.796,112.084 118.798 C 110.977 118.799,109.970 119.094,109.247 119.628 C 108.365 120.281,107.297 120.506,104.222 120.690 C 101.101 120.876,100.175 121.075,99.610 121.681 C 99.167 122.157,97.879 122.609,96.154 122.895 C 94.627 123.148,93.067 123.666,92.644 124.060 C 90.968 125.621,79.618 125.689,77.932 124.148 C 77.419 123.679,76.171 123.177,75.158 123.032 C 73.924 122.855,73.035 122.444,72.461 121.784 C 71.970 121.219,71.170 120.800,70.584 120.800 C 70.023 120.800,69.136 120.373,68.614 119.851 C 68.092 119.328,67.028 118.782,66.250 118.636 C 65.471 118.490,64.510 117.957,64.113 117.452 C 63.716 116.948,62.929 116.419,62.364 116.277 C 60.660 115.849,54.989 110.488,53.187 107.600 C 52.061 105.796,52.744 100.336,54.282 98.840 L 55.764 97.400 64.982 97.166 C 71.979 96.989,74.537 96.785,75.600 96.320 C 77.152 95.641,88.653 94.797,96.340 94.799 C 99.409 94.800,101.287 94.616,102.140 94.231 C 103.847 93.460,105.573 93.229,112.600 92.828 C 117.316 92.559,118.995 92.306,120.448 91.647 C 121.893 90.992,123.466 90.752,127.648 90.549 C 130.592 90.407,133.357 90.106,133.794 89.881 C 135.261 89.124,140.160 88.385,145.400 88.129 C 148.381 87.984,150.941 87.664,151.400 87.381 C 152.533 86.681,155.271 86.352,162.521 86.046 C 167.183 85.850,168.930 85.637,169.177 85.237 C 169.650 84.473,172.666 84.075,180.348 83.763 C 184.007 83.615,187.180 83.364,187.400 83.205 C 188.309 82.547,191.972 81.956,197.320 81.605 C 201.208 81.349,203.631 80.988,205.000 80.461 C 206.523 79.874,208.574 79.621,213.600 79.401 C 217.230 79.242,220.420 78.934,220.689 78.716 C 221.685 77.910,224.373 77.528,231.000 77.249 C 234.788 77.090,238.154 76.762,238.600 76.508 C 240.110 75.649,243.362 75.149,248.977 74.912 C 253.424 74.724,254.912 74.513,256.091 73.902 C 257.176 73.339,258.921 73.038,262.491 72.797 C 266.182 72.549,267.895 72.245,269.395 71.573 C 270.847 70.922,272.425 70.628,275.195 70.492 C 277.944 70.358,279.343 70.099,280.235 69.561 C 281.502 68.796,285.704 68.022,288.667 68.008 C 289.583 68.004,290.399 67.804,290.479 67.564 C 290.692 66.924,294.640 66.000,297.161 66.000 C 298.851 66.000,299.557 65.804,300.266 65.138 C 301.226 64.236,303.713 63.664,306.851 63.624 C 307.984 63.609,308.895 63.367,309.200 63.000 C 309.823 62.250,312.092 62.223,313.520 62.949 " stroke="none" fill="#fcfcfc" fill-rule="evenodd"></path><path id="path2" d="M306.000 64.754 C 305.010 64.912,303.604 65.358,302.875 65.744 C 302.146 66.131,300.056 66.688,298.231 66.984 C 296.406 67.279,294.393 67.788,293.756 68.114 C 293.120 68.440,291.070 68.910,289.200 69.159 C 287.330 69.408,284.659 69.969,283.264 70.406 C 281.870 70.843,280.070 71.203,279.264 71.207 C 278.459 71.211,276.450 71.575,274.800 72.017 C 273.150 72.459,269.882 73.078,267.539 73.394 C 265.195 73.709,261.775 74.325,259.939 74.764 C 258.102 75.202,254.530 75.760,252.000 76.004 C 249.470 76.248,246.859 76.616,246.198 76.822 C 245.538 77.028,241.897 77.469,238.109 77.802 C 234.320 78.135,230.068 78.674,228.659 79.001 C 227.250 79.328,222.880 79.872,218.948 80.211 C 215.017 80.550,211.260 80.985,210.600 81.179 C 208.637 81.756,204.443 82.345,200.549 82.591 C 198.541 82.718,195.661 83.099,194.149 83.439 C 192.637 83.778,188.610 84.305,185.200 84.610 C 181.790 84.914,178.460 85.338,177.800 85.552 C 177.140 85.765,174.260 86.149,171.400 86.405 C 164.008 87.066,160.099 87.527,157.800 88.010 C 156.700 88.241,152.740 88.772,149.000 89.189 C 145.260 89.606,141.300 90.131,140.200 90.356 C 139.100 90.581,136.040 90.952,133.400 91.182 C 130.760 91.411,127.700 91.876,126.600 92.214 C 125.500 92.552,121.540 93.176,117.800 93.602 C 114.060 94.027,110.010 94.571,108.800 94.809 C 107.590 95.048,104.350 95.412,101.600 95.618 C 98.850 95.823,94.800 96.178,92.600 96.406 C 83.135 97.386,80.417 97.575,69.800 97.996 C 56.771 98.512,55.567 98.740,53.906 101.000 C 53.134 102.051,53.588 105.849,54.600 106.800 C 55.150 107.317,55.600 107.975,55.600 108.263 C 55.600 109.892,66.406 118.000,68.579 118.000 C 68.852 118.000,69.402 118.360,69.800 118.800 C 70.198 119.240,70.721 119.601,70.962 119.601 C 71.203 119.602,72.650 120.232,74.177 121.001 C 75.704 121.771,77.287 122.400,77.693 122.400 C 78.099 122.400,79.190 122.805,80.116 123.300 C 82.289 124.461,88.452 124.582,90.110 123.496 C 90.668 123.130,91.997 122.617,93.063 122.356 C 94.128 122.095,95.670 121.547,96.489 121.138 C 97.308 120.730,99.363 120.202,101.056 119.967 C 102.748 119.732,105.048 119.200,106.167 118.787 C 107.285 118.373,109.678 117.853,111.485 117.630 C 113.291 117.408,115.631 116.953,116.685 116.620 C 117.738 116.286,120.040 115.840,121.800 115.628 C 123.560 115.415,126.176 114.877,127.614 114.432 C 129.051 113.986,131.398 113.455,132.829 113.253 C 134.260 113.050,136.684 112.518,138.215 112.070 C 139.747 111.622,142.080 111.138,143.400 110.994 C 144.720 110.850,147.060 110.394,148.600 109.981 C 150.140 109.567,152.660 109.119,154.200 108.984 C 155.740 108.850,158.980 108.317,161.400 107.800 C 163.820 107.283,168.140 106.578,171.000 106.233 C 173.860 105.888,177.445 105.390,178.966 105.127 L 181.733 104.648 183.024 106.141 C 183.902 107.157,184.402 108.236,184.590 109.517 C 184.742 110.553,185.216 112.199,185.644 113.176 C 186.171 114.378,186.545 116.575,186.803 119.976 C 187.012 122.739,187.290 125.900,187.419 127.000 C 188.428 135.548,189.212 196.000,189.067 254.000 L 188.936 306.200 187.546 310.091 C 184.919 317.446,179.641 319.641,171.334 316.834 C 170.050 316.400,168.110 315.919,167.022 315.765 C 165.933 315.611,164.313 315.166,163.422 314.775 C 162.530 314.385,160.270 313.785,158.400 313.443 C 156.530 313.101,154.010 312.538,152.800 312.193 C 151.590 311.848,149.340 311.400,147.800 311.198 C 146.260 310.996,144.237 310.710,143.304 310.563 C 140.391 310.104,139.221 312.930,141.300 315.402 C 143.609 318.148,146.695 320.971,150.200 323.544 C 151.300 324.351,152.560 325.315,153.000 325.686 C 159.916 331.519,164.254 335.115,164.959 335.600 C 165.438 335.930,166.199 336.560,166.650 337.000 C 167.101 337.440,168.526 338.700,169.816 339.800 C 172.406 342.009,173.097 342.631,177.903 347.075 C 179.720 348.755,181.566 350.381,182.006 350.689 C 182.446 350.998,184.713 353.083,187.044 355.325 C 191.691 359.794,192.422 360.208,194.987 359.823 C 197.967 359.376,202.289 354.945,204.569 350.000 C 204.924 349.230,205.466 348.150,205.773 347.600 C 206.969 345.460,208.786 341.342,209.038 340.200 C 209.184 339.540,209.618 338.460,210.003 337.800 C 210.388 337.140,210.815 335.970,210.953 335.200 C 211.090 334.430,211.652 332.914,212.201 331.832 C 212.751 330.750,213.200 329.484,213.200 329.019 C 213.200 328.555,213.475 327.190,213.812 325.987 C 216.309 317.068,216.491 308.999,214.787 282.800 C 214.594 279.830,214.165 271.370,213.835 264.000 C 213.505 256.630,213.024 246.820,212.767 242.200 C 211.275 215.401,211.176 172.233,212.570 156.800 C 212.680 155.590,212.967 147.850,213.209 139.600 C 213.639 124.945,213.713 124.167,215.224 118.354 C 216.504 113.431,215.104 109.028,211.111 105.415 C 208.957 103.465,208.848 103.283,209.500 102.718 C 210.653 101.719,220.066 100.418,231.800 99.633 C 235.100 99.413,238.790 99.042,240.000 98.810 C 242.202 98.386,246.402 97.951,255.400 97.213 C 258.040 96.997,262.090 96.637,264.400 96.413 C 270.771 95.797,284.524 95.059,288.800 95.104 C 307.198 95.298,325.299 96.114,336.000 97.233 C 347.551 98.441,351.200 96.887,351.200 90.761 C 351.200 86.781,349.976 84.981,344.836 81.400 C 343.889 80.740,342.781 79.893,342.374 79.517 C 341.967 79.141,340.411 78.076,338.917 77.150 C 337.423 76.224,335.840 75.169,335.400 74.807 C 334.960 74.445,333.840 73.820,332.912 73.419 C 331.983 73.017,330.920 72.354,330.550 71.945 C 330.179 71.535,329.579 71.200,329.216 71.200 C 328.853 71.200,327.970 70.768,327.254 70.240 C 326.539 69.712,325.359 69.169,324.632 69.032 C 323.905 68.896,322.987 68.428,322.593 67.992 C 322.199 67.556,321.652 67.200,321.379 67.200 C 321.105 67.200,319.828 66.629,318.541 65.932 C 316.035 64.574,310.420 64.047,306.000 64.754 M314.113 65.183 C 315.385 65.392,316.868 65.910,317.409 66.336 C 317.950 66.761,319.063 67.235,319.883 67.389 C 320.702 67.543,321.610 68.008,321.901 68.423 C 322.192 68.838,323.188 69.378,324.115 69.624 C 325.042 69.870,326.169 70.413,326.619 70.830 C 327.070 71.247,328.021 71.704,328.734 71.847 C 329.446 71.989,330.247 72.416,330.514 72.795 C 330.781 73.175,331.450 73.621,332.000 73.788 C 332.550 73.954,333.450 74.507,334.000 75.016 C 334.550 75.526,335.510 76.069,336.132 76.223 C 336.755 76.377,337.360 76.751,337.476 77.053 C 337.592 77.356,338.342 77.907,339.144 78.277 C 339.945 78.647,341.030 79.366,341.555 79.875 C 342.080 80.384,342.734 80.800,343.009 80.800 C 343.283 80.800,343.803 81.250,344.163 81.800 C 344.524 82.350,345.039 82.802,345.309 82.805 C 347.903 82.834,351.098 88.877,350.557 92.731 C 350.049 96.356,343.591 98.046,336.200 96.487 C 331.822 95.564,306.808 94.433,288.400 94.326 C 280.787 94.282,263.246 95.440,257.200 96.386 C 255.770 96.609,251.030 96.968,246.666 97.182 C 242.303 97.397,238.163 97.749,237.466 97.965 C 234.685 98.826,228.261 99.576,222.000 99.770 C 211.207 100.104,205.420 102.291,209.044 104.665 C 210.627 105.703,213.200 108.363,213.200 108.962 C 213.200 109.253,213.573 109.967,214.029 110.546 C 215.083 111.886,214.953 117.171,213.796 120.000 C 213.174 121.521,213.008 123.568,212.726 133.200 C 212.286 148.201,211.810 156.589,211.273 158.800 C 210.635 161.420,210.627 233.285,211.264 235.203 C 211.996 237.408,212.360 243.428,212.777 260.200 C 212.991 268.780,213.276 276.340,213.412 277.000 C 215.094 285.160,215.545 317.006,214.043 321.481 C 213.615 322.757,213.068 325.222,212.828 326.959 C 212.567 328.850,212.154 330.295,211.799 330.559 C 211.473 330.802,210.995 332.080,210.738 333.400 C 210.480 334.720,209.956 336.207,209.574 336.705 C 209.191 337.202,208.657 338.552,208.388 339.705 C 208.119 340.857,207.643 342.094,207.330 342.453 C 207.017 342.812,206.570 343.800,206.335 344.649 C 206.101 345.498,205.480 346.703,204.955 347.327 C 204.430 347.951,204.000 348.891,204.000 349.415 C 204.000 349.940,203.663 350.691,203.251 351.084 C 202.839 351.478,202.182 352.430,201.791 353.200 C 201.401 353.970,200.748 354.835,200.340 355.123 C 199.933 355.410,199.600 355.915,199.600 356.243 C 199.600 356.572,199.056 357.031,198.392 357.263 C 197.727 357.495,197.001 358.025,196.777 358.442 C 196.457 359.041,195.923 359.200,194.225 359.200 L 192.077 359.200 187.609 354.900 C 185.152 352.535,181.899 349.520,180.382 348.200 C 178.864 346.880,177.137 345.305,176.545 344.700 C 175.952 344.095,175.240 343.600,174.961 343.600 C 174.682 343.600,174.340 343.240,174.200 342.800 C 174.060 342.360,173.793 342.000,173.607 342.000 C 173.420 342.000,172.758 341.460,172.135 340.800 C 171.512 340.140,170.773 339.600,170.493 339.600 C 170.212 339.600,169.778 339.150,169.527 338.600 C 169.277 338.050,168.927 337.600,168.749 337.600 C 168.572 337.600,167.836 337.077,167.113 336.437 C 163.843 333.542,160.019 330.400,159.764 330.400 C 159.485 330.400,158.929 329.919,156.540 327.616 C 155.846 326.947,155.091 326.400,154.862 326.400 C 154.633 326.400,154.205 326.056,153.910 325.636 C 153.263 324.712,148.653 321.200,148.088 321.200 C 147.867 321.200,147.581 320.928,147.454 320.597 C 147.327 320.265,146.771 319.787,146.219 319.536 C 145.667 319.284,145.118 318.773,145.000 318.400 C 144.882 318.027,144.338 317.518,143.792 317.269 C 143.247 317.021,142.800 316.553,142.800 316.229 C 142.800 315.906,142.342 315.147,141.782 314.543 C 139.789 312.393,141.318 310.945,144.858 311.629 C 145.816 311.814,147.342 311.973,148.249 311.983 C 149.156 311.992,150.686 312.347,151.649 312.771 C 152.612 313.196,154.984 313.716,156.919 313.927 C 159.234 314.180,160.696 314.544,161.191 314.992 C 161.650 315.407,163.162 315.828,165.071 316.071 C 166.792 316.290,168.920 316.852,169.800 317.318 C 171.731 318.343,180.144 318.820,182.452 318.035 C 185.015 317.165,186.880 314.991,187.363 312.311 C 187.511 311.492,187.892 310.676,188.210 310.498 C 189.539 309.755,189.600 306.157,189.557 231.445 C 189.508 146.502,189.170 124.430,187.894 122.878 C 187.658 122.591,187.349 120.341,187.208 117.878 C 187.015 114.532,186.743 112.996,186.131 111.800 C 185.681 110.920,185.188 109.390,185.036 108.400 C 184.613 105.639,182.831 104.000,180.254 104.000 C 177.809 104.000,173.281 104.748,172.200 105.331 C 171.760 105.569,168.839 105.973,165.709 106.229 C 161.999 106.533,159.698 106.906,159.097 107.300 C 158.537 107.667,156.219 108.093,153.198 108.384 C 150.461 108.648,147.586 109.144,146.811 109.487 C 146.035 109.829,143.358 110.342,140.861 110.627 C 137.858 110.970,136.083 111.363,135.614 111.787 C 135.162 112.196,133.545 112.578,131.153 112.842 C 129.089 113.069,126.860 113.533,126.200 113.872 C 125.540 114.211,122.994 114.716,120.543 114.994 C 118.091 115.272,115.481 115.805,114.743 116.180 C 113.986 116.564,111.653 117.027,109.400 117.240 C 106.548 117.510,105.099 117.839,104.351 118.384 C 103.655 118.891,102.133 119.277,99.831 119.530 C 97.702 119.764,96.093 120.154,95.666 120.540 C 95.284 120.886,93.841 121.433,92.460 121.755 C 91.080 122.077,89.501 122.635,88.953 122.994 C 87.340 124.051,82.864 124.016,81.486 122.936 C 80.881 122.462,79.503 121.952,78.425 121.803 C 77.340 121.654,75.881 121.102,75.155 120.567 C 74.434 120.035,73.454 119.600,72.977 119.600 C 72.500 119.600,71.431 119.060,70.600 118.400 C 69.769 117.740,68.687 117.200,68.194 117.200 C 67.701 117.200,67.051 116.901,66.749 116.535 C 66.447 116.169,65.454 115.539,64.543 115.135 C 63.631 114.731,62.782 114.130,62.655 113.800 C 62.529 113.470,62.179 113.200,61.879 113.200 C 61.578 113.200,60.876 112.705,60.318 112.100 C 59.760 111.495,58.721 110.550,58.008 110.000 C 57.295 109.450,56.456 108.407,56.144 107.683 C 55.831 106.958,55.321 106.268,55.012 106.149 C 54.281 105.869,53.856 103.891,54.169 102.227 C 54.473 100.605,57.074 99.600,60.966 99.600 C 62.404 99.600,63.648 99.392,63.937 99.103 C 64.298 98.742,67.736 98.531,76.517 98.331 C 83.163 98.180,89.590 97.871,90.800 97.644 C 92.010 97.418,93.540 97.123,94.200 96.989 C 94.860 96.856,99.000 96.520,103.400 96.244 C 107.800 95.967,111.760 95.545,112.200 95.306 C 113.492 94.603,117.079 94.043,121.897 93.792 C 124.924 93.634,126.951 93.318,128.097 92.825 C 129.304 92.306,131.313 92.018,135.000 91.836 C 137.860 91.695,141.100 91.329,142.200 91.023 C 145.865 90.004,148.555 89.631,153.805 89.418 C 157.652 89.262,159.634 88.986,161.405 88.363 C 163.240 87.716,165.375 87.438,170.537 87.172 C 174.242 86.981,177.842 86.650,178.537 86.437 C 180.947 85.695,184.229 85.244,189.800 84.890 C 193.697 84.642,195.794 84.328,196.696 83.858 C 197.627 83.374,199.427 83.123,203.096 82.968 C 208.800 82.726,213.108 82.158,214.963 81.403 C 215.643 81.126,218.810 80.782,222.000 80.638 C 227.549 80.388,231.039 79.902,232.458 79.180 C 232.820 78.996,236.093 78.642,239.732 78.393 C 243.370 78.144,247.394 77.669,248.674 77.337 C 249.953 77.006,253.532 76.505,256.627 76.224 C 260.622 75.862,262.562 75.512,263.317 75.018 C 264.050 74.537,265.762 74.210,268.826 73.963 C 271.741 73.729,273.896 73.330,275.086 72.803 C 276.085 72.361,277.583 72.000,278.416 72.000 C 280.417 72.000,285.965 70.927,286.573 70.423 C 286.837 70.204,288.691 69.839,290.694 69.612 C 294.640 69.165,295.479 68.952,296.406 68.162 C 296.740 67.878,298.411 67.472,300.120 67.260 C 301.829 67.048,303.684 66.575,304.241 66.210 C 305.109 65.641,308.187 65.023,311.000 64.853 C 311.440 64.826,312.841 64.975,314.113 65.183 " stroke="none" fill="#5c5c5c" fill-rule="evenodd"></path><path id="path3" d="M306.783 64.186 C 304.904 64.468,302.654 65.058,301.783 65.498 C 300.912 65.937,299.120 66.423,297.800 66.577 C 296.480 66.731,294.050 67.281,292.400 67.800 C 290.750 68.319,288.295 68.853,286.944 68.987 C 285.593 69.120,283.523 69.563,282.344 69.970 C 281.165 70.377,278.763 70.840,277.006 70.998 C 275.249 71.156,272.999 71.606,272.006 71.997 C 271.013 72.388,268.309 72.912,265.997 73.161 C 263.686 73.409,260.266 73.982,258.397 74.433 C 256.529 74.883,253.020 75.416,250.600 75.616 C 248.180 75.816,244.987 76.244,243.503 76.568 C 242.020 76.892,238.240 77.351,235.103 77.588 C 231.967 77.826,227.780 78.374,225.800 78.808 C 223.820 79.241,219.590 79.774,216.400 79.991 C 213.210 80.209,209.340 80.672,207.800 81.020 C 204.628 81.736,204.043 81.815,197.400 82.421 C 194.760 82.661,191.839 83.112,190.908 83.421 C 189.978 83.731,187.188 84.083,184.708 84.204 C 180.067 84.429,175.657 84.975,173.200 85.628 C 172.430 85.833,168.470 86.273,164.400 86.606 C 160.330 86.939,156.550 87.371,156.000 87.567 C 154.821 87.985,149.863 88.667,144.034 89.214 C 141.742 89.429,139.222 89.773,138.434 89.978 C 137.645 90.183,134.840 90.550,132.200 90.793 C 129.560 91.036,127.156 91.318,126.859 91.421 C 125.039 92.046,119.767 92.883,114.400 93.399 C 110.990 93.726,107.570 94.162,106.800 94.368 C 104.712 94.924,98.477 95.600,95.431 95.600 C 92.619 95.600,86.661 96.160,82.600 96.806 C 81.280 97.016,74.894 97.392,68.409 97.642 L 56.618 98.095 54.909 99.496 C 51.545 102.253,52.941 107.464,58.267 112.029 C 61.967 115.200,63.716 116.381,67.053 117.962 C 68.402 118.601,69.619 119.308,69.758 119.531 C 69.896 119.755,70.539 120.055,71.186 120.197 C 71.833 120.339,72.832 120.824,73.405 121.276 C 73.979 121.727,75.181 122.260,76.076 122.462 C 76.971 122.663,78.536 123.226,79.552 123.714 C 82.162 124.966,88.611 124.963,91.019 123.710 C 91.909 123.246,93.349 122.739,94.219 122.583 C 95.088 122.427,96.700 121.891,97.800 121.392 C 98.900 120.893,100.930 120.367,102.311 120.222 C 103.692 120.077,106.210 119.517,107.906 118.979 C 109.602 118.441,111.598 118.000,112.341 118.000 C 113.083 118.000,115.516 117.564,117.746 117.032 C 119.976 116.500,122.880 115.948,124.200 115.805 C 125.520 115.663,127.890 115.109,129.467 114.573 C 131.044 114.038,132.934 113.596,133.667 113.590 C 135.088 113.580,136.020 113.381,140.893 112.047 C 142.594 111.581,144.586 111.200,145.320 111.200 C 146.054 111.200,147.992 110.840,149.627 110.400 C 151.262 109.960,154.383 109.421,156.562 109.203 C 158.741 108.985,161.801 108.460,163.362 108.035 C 164.923 107.611,168.450 107.068,171.200 106.828 C 173.950 106.589,177.343 106.151,178.740 105.856 C 182.140 105.137,183.674 106.538,184.405 111.028 C 184.613 112.309,185.075 113.972,185.431 114.723 C 186.658 117.307,186.951 123.559,188.045 170.400 C 188.268 179.970,188.484 214.080,188.525 246.200 L 188.600 304.600 187.712 307.200 C 187.223 308.630,186.633 310.557,186.401 311.482 C 184.798 317.869,178.767 318.745,165.200 314.563 C 163.550 314.055,160.981 313.446,159.492 313.210 C 158.003 312.975,155.930 312.445,154.886 312.034 C 153.842 311.623,151.551 311.155,149.794 310.996 C 148.037 310.837,145.880 310.460,145.000 310.159 C 141.498 308.961,140.000 309.788,140.000 312.918 C 140.000 315.568,142.528 318.341,150.751 324.713 C 153.124 326.552,159.453 331.735,165.857 337.084 C 169.457 340.091,180.032 349.613,186.555 355.722 C 192.249 361.054,194.600 361.698,198.275 358.930 C 200.742 357.072,204.800 351.886,204.800 350.591 C 204.800 350.352,205.241 349.558,205.779 348.828 C 206.318 348.099,206.878 346.939,207.024 346.251 C 207.170 345.563,207.584 344.667,207.944 344.259 C 208.549 343.574,209.292 341.699,210.979 336.600 C 211.343 335.500,211.978 333.959,212.389 333.175 C 212.801 332.391,213.346 330.591,213.600 329.175 C 213.854 327.759,214.400 325.831,214.812 324.891 C 216.761 320.453,216.378 281.363,214.225 265.000 C 214.110 264.120,213.809 257.550,213.557 250.400 C 213.305 243.250,212.925 232.450,212.713 226.400 C 211.683 197.083,213.132 128.444,214.901 122.811 C 215.530 120.807,215.729 119.038,215.760 115.200 L 215.800 110.200 214.483 108.316 C 213.758 107.280,212.328 105.717,211.306 104.843 C 209.038 102.905,209.253 102.748,215.200 102.010 C 217.290 101.750,219.630 101.373,220.400 101.171 C 221.170 100.969,226.120 100.527,231.400 100.190 C 236.680 99.852,241.540 99.415,242.200 99.219 C 244.208 98.620,249.060 98.001,251.907 97.980 C 253.388 97.969,257.390 97.688,260.800 97.355 C 264.210 97.022,268.890 96.565,271.200 96.339 C 280.927 95.389,315.302 95.987,331.800 97.393 C 345.924 98.597,350.030 97.879,351.449 93.955 C 353.124 89.324,351.391 85.420,345.933 81.534 C 344.594 80.580,343.026 79.395,342.449 78.899 C 341.872 78.403,340.500 77.431,339.400 76.739 C 338.300 76.046,336.770 75.069,336.000 74.567 C 335.230 74.065,334.060 73.424,333.400 73.143 C 332.740 72.861,331.691 72.219,331.069 71.716 C 330.447 71.212,329.707 70.800,329.423 70.800 C 329.140 70.800,328.479 70.466,327.954 70.058 C 327.429 69.650,326.336 69.100,325.525 68.835 C 324.714 68.571,323.634 68.034,323.125 67.641 C 322.616 67.249,321.582 66.717,320.826 66.459 C 320.070 66.201,319.170 65.739,318.826 65.432 C 317.264 64.041,311.637 63.459,306.783 64.186 M318.541 65.932 C 319.828 66.629,321.105 67.200,321.379 67.200 C 321.652 67.200,322.199 67.556,322.593 67.992 C 322.987 68.428,323.905 68.896,324.632 69.032 C 325.359 69.169,326.539 69.712,327.254 70.240 C 327.970 70.768,328.853 71.200,329.216 71.200 C 329.579 71.200,330.179 71.535,330.550 71.945 C 330.920 72.354,331.983 73.017,332.912 73.419 C 333.840 73.820,334.960 74.445,335.400 74.807 C 335.840 75.169,337.423 76.224,338.917 77.150 C 340.411 78.076,341.967 79.141,342.374 79.517 C 342.781 79.893,343.889 80.740,344.836 81.400 C 349.976 84.981,351.200 86.781,351.200 90.761 C 351.200 96.887,347.551 98.441,336.000 97.233 C 325.299 96.114,307.198 95.298,288.800 95.104 C 284.524 95.059,270.771 95.797,264.400 96.413 C 262.090 96.637,258.040 96.997,255.400 97.213 C 246.402 97.951,242.202 98.386,240.000 98.810 C 238.790 99.042,235.100 99.413,231.800 99.633 C 220.066 100.418,210.653 101.719,209.500 102.718 C 208.848 103.283,208.957 103.465,211.111 105.415 C 215.104 109.028,216.504 113.431,215.224 118.354 C 213.713 124.167,213.639 124.945,213.209 139.600 C 212.967 147.850,212.680 155.590,212.570 156.800 C 211.176 172.233,211.275 215.401,212.767 242.200 C 213.024 246.820,213.505 256.630,213.835 264.000 C 214.165 271.370,214.594 279.830,214.787 282.800 C 216.491 308.999,216.309 317.068,213.812 325.987 C 213.475 327.190,213.200 328.555,213.200 329.019 C 213.200 329.484,212.751 330.750,212.201 331.832 C 211.652 332.914,211.090 334.430,210.953 335.200 C 210.815 335.970,210.388 337.140,210.003 337.800 C 209.618 338.460,209.184 339.540,209.038 340.200 C 208.786 341.342,206.969 345.460,205.773 347.600 C 205.466 348.150,204.924 349.230,204.569 350.000 C 202.289 354.945,197.967 359.376,194.987 359.823 C 192.422 360.208,191.691 359.794,187.044 355.325 C 184.713 353.083,182.446 350.998,182.006 350.689 C 181.566 350.381,179.720 348.755,177.903 347.075 C 173.097 342.631,172.406 342.009,169.816 339.800 C 168.526 338.700,167.101 337.440,166.650 337.000 C 166.199 336.560,165.438 335.930,164.959 335.600 C 164.254 335.115,159.916 331.519,153.000 325.686 C 152.560 325.315,151.300 324.351,150.200 323.544 C 146.695 320.971,143.609 318.148,141.300 315.402 C 139.221 312.930,140.391 310.104,143.304 310.563 C 144.237 310.710,146.260 310.996,147.800 311.198 C 149.340 311.400,151.590 311.848,152.800 312.193 C 154.010 312.538,156.530 313.101,158.400 313.443 C 160.270 313.785,162.530 314.385,163.422 314.775 C 164.313 315.166,165.933 315.611,167.022 315.765 C 168.110 315.919,170.050 316.400,171.334 316.834 C 179.641 319.641,184.919 317.446,187.546 310.091 L 188.936 306.200 189.067 254.000 C 189.212 196.000,188.428 135.548,187.419 127.000 C 187.290 125.900,187.012 122.739,186.803 119.976 C 186.545 116.575,186.171 114.378,185.644 113.176 C 185.216 112.199,184.742 110.553,184.590 109.517 C 184.402 108.236,183.902 107.157,183.024 106.141 L 181.733 104.648 178.966 105.127 C 177.445 105.390,173.860 105.888,171.000 106.233 C 168.140 106.578,163.820 107.283,161.400 107.800 C 158.980 108.317,155.740 108.850,154.200 108.984 C 152.660 109.119,150.140 109.567,148.600 109.981 C 147.060 110.394,144.720 110.850,143.400 110.994 C 142.080 111.138,139.747 111.622,138.215 112.070 C 136.684 112.518,134.260 113.050,132.829 113.253 C 131.398 113.455,129.051 113.986,127.614 114.432 C 126.176 114.877,123.560 115.415,121.800 115.628 C 120.040 115.840,117.738 116.286,116.685 116.620 C 115.631 116.953,113.291 117.408,111.485 117.630 C 109.678 117.853,107.285 118.373,106.167 118.787 C 105.048 119.200,102.748 119.732,101.056 119.967 C 99.363 120.202,97.308 120.730,96.489 121.138 C 95.670 121.547,94.128 122.095,93.063 122.356 C 91.997 122.617,90.668 123.130,90.110 123.496 C 88.452 124.582,82.289 124.461,80.116 123.300 C 79.190 122.805,78.099 122.400,77.693 122.400 C 77.287 122.400,75.704 121.771,74.177 121.001 C 72.650 120.232,71.203 119.602,70.962 119.601 C 70.721 119.601,70.198 119.240,69.800 118.800 C 69.402 118.360,68.852 118.000,68.579 118.000 C 66.406 118.000,55.600 109.892,55.600 108.263 C 55.600 107.975,55.150 107.317,54.600 106.800 C 53.588 105.849,53.134 102.051,53.906 101.000 C 55.567 98.740,56.771 98.512,69.800 97.996 C 80.417 97.575,83.135 97.386,92.600 96.406 C 94.800 96.178,98.850 95.823,101.600 95.618 C 104.350 95.412,107.590 95.048,108.800 94.809 C 110.010 94.571,114.060 94.027,117.800 93.602 C 121.540 93.176,125.500 92.552,126.600 92.214 C 127.700 91.876,130.760 91.411,133.400 91.182 C 136.040 90.952,139.100 90.581,140.200 90.356 C 141.300 90.131,145.260 89.606,149.000 89.189 C 152.740 88.772,156.700 88.241,157.800 88.010 C 160.099 87.527,164.008 87.066,171.400 86.405 C 174.260 86.149,177.140 85.765,177.800 85.552 C 178.460 85.338,181.790 84.914,185.200 84.610 C 188.610 84.305,192.637 83.778,194.149 83.439 C 195.661 83.099,198.541 82.718,200.549 82.591 C 204.443 82.345,208.637 81.756,210.600 81.179 C 211.260 80.985,215.017 80.550,218.948 80.211 C 222.880 79.872,227.250 79.328,228.659 79.001 C 230.068 78.674,234.320 78.135,238.109 77.802 C 241.897 77.469,245.538 77.028,246.198 76.822 C 246.859 76.616,249.470 76.248,252.000 76.004 C 254.530 75.760,258.102 75.202,259.939 74.764 C 261.775 74.325,265.195 73.709,267.539 73.394 C 269.882 73.078,273.150 72.459,274.800 72.017 C 276.450 71.575,278.459 71.211,279.264 71.207 C 280.070 71.203,281.870 70.843,283.264 70.406 C 284.659 69.969,287.330 69.408,289.200 69.159 C 291.070 68.910,293.120 68.440,293.756 68.114 C 294.393 67.788,296.406 67.279,298.231 66.984 C 300.056 66.688,302.146 66.131,302.875 65.744 C 306.315 63.921,315.021 64.025,318.541 65.932 " stroke="none" fill="#7c7c7c" fill-rule="evenodd"></path><path id="path4" d="M309.200 63.000 C 308.895 63.367,307.984 63.609,306.851 63.624 C 303.713 63.664,301.226 64.236,300.266 65.138 C 299.557 65.804,298.851 66.000,297.161 66.000 C 294.640 66.000,290.692 66.924,290.479 67.564 C 290.399 67.804,289.583 68.004,288.667 68.008 C 285.704 68.022,281.502 68.796,280.235 69.561 C 279.343 70.099,277.944 70.358,275.195 70.492 C 272.425 70.628,270.847 70.922,269.395 71.573 C 267.895 72.245,266.182 72.549,262.491 72.797 C 258.921 73.038,257.176 73.339,256.091 73.902 C 254.912 74.513,253.424 74.724,248.977 74.912 C 243.362 75.149,240.110 75.649,238.600 76.508 C 238.154 76.762,234.788 77.090,231.000 77.249 C 224.373 77.528,221.685 77.910,220.689 78.716 C 220.420 78.934,217.230 79.242,213.600 79.401 C 208.574 79.621,206.523 79.874,205.000 80.461 C 203.631 80.988,201.208 81.349,197.320 81.605 C 191.972 81.956,188.309 82.547,187.400 83.205 C 187.180 83.364,184.007 83.615,180.348 83.763 C 172.666 84.075,169.650 84.473,169.177 85.237 C 168.930 85.637,167.183 85.850,162.521 86.046 C 155.271 86.352,152.533 86.681,151.400 87.381 C 150.941 87.664,148.381 87.984,145.400 88.129 C 140.160 88.385,135.261 89.124,133.794 89.881 C 133.357 90.106,130.592 90.407,127.648 90.549 C 123.466 90.752,121.893 90.992,120.448 91.647 C 118.995 92.306,117.316 92.559,112.600 92.828 C 105.573 93.229,103.847 93.460,102.140 94.231 C 101.287 94.616,99.409 94.800,96.340 94.799 C 88.653 94.797,77.152 95.641,75.600 96.320 C 74.537 96.785,71.979 96.989,64.982 97.166 L 55.764 97.400 54.282 98.840 C 52.744 100.336,52.061 105.796,53.187 107.600 C 53.973 108.860,55.066 110.132,56.911 111.934 C 60.138 115.086,61.296 116.009,62.364 116.277 C 62.929 116.419,63.716 116.948,64.113 117.452 C 64.510 117.957,65.471 118.490,66.250 118.636 C 67.028 118.782,68.092 119.328,68.614 119.851 C 69.136 120.373,70.023 120.800,70.584 120.800 C 71.170 120.800,71.970 121.219,72.461 121.784 C 73.035 122.444,73.924 122.855,75.158 123.032 C 76.171 123.177,77.419 123.679,77.932 124.148 C 79.618 125.689,90.968 125.621,92.644 124.060 C 93.067 123.666,94.627 123.148,96.154 122.895 C 97.879 122.609,99.167 122.157,99.610 121.681 C 100.175 121.075,101.101 120.876,104.222 120.690 C 107.297 120.506,108.365 120.281,109.247 119.628 C 109.970 119.094,110.977 118.799,112.084 118.798 C 114.732 118.796,120.605 117.743,121.657 117.082 C 122.218 116.730,124.036 116.407,126.146 116.286 C 128.929 116.127,129.941 115.898,130.851 115.225 C 131.757 114.556,132.937 114.287,136.238 113.997 C 139.301 113.728,140.827 113.402,141.780 112.813 C 142.724 112.229,143.780 112.000,145.528 112.000 C 148.441 112.000,151.850 111.342,153.127 110.534 C 153.729 110.152,155.896 109.829,159.327 109.610 C 164.737 109.264,165.984 109.015,166.491 108.182 C 166.684 107.864,168.838 107.613,172.891 107.435 C 176.251 107.287,179.493 107.070,180.095 106.952 C 182.117 106.558,183.423 108.584,183.900 112.856 C 184.200 115.544,184.507 116.663,185.123 117.321 C 186.008 118.267,186.796 145.048,186.802 174.371 C 186.804 183.728,186.913 186.008,187.402 186.946 C 188.114 188.310,188.328 303.111,187.621 303.820 C 187.093 304.348,186.000 308.695,186.000 310.263 C 186.000 311.091,185.639 311.949,185.000 312.638 C 184.450 313.231,184.000 313.882,184.000 314.083 C 184.000 314.285,182.841 314.976,181.424 315.618 L 178.847 316.787 175.724 315.987 C 174.006 315.547,171.430 315.082,170.000 314.954 C 168.352 314.805,166.981 314.425,166.256 313.916 C 165.438 313.340,164.124 313.030,161.631 312.823 C 158.924 312.599,157.873 312.330,156.903 311.613 C 155.860 310.842,155.017 310.660,151.728 310.499 C 148.848 310.358,147.467 310.105,146.552 309.553 C 139.920 305.548,136.351 312.412,141.980 318.346 C 143.260 319.696,144.468 320.800,144.665 320.800 C 144.861 320.800,145.498 321.295,146.081 321.900 C 146.664 322.505,147.696 323.450,148.375 324.000 C 149.054 324.550,150.154 325.495,150.819 326.100 C 151.484 326.705,152.174 327.200,152.352 327.200 C 152.531 327.200,153.326 327.830,154.119 328.600 C 154.912 329.370,155.810 330.000,156.116 330.000 C 156.422 330.000,156.877 330.450,157.127 331.000 C 157.387 331.570,157.919 332.000,158.364 332.000 C 158.794 332.000,159.254 332.341,159.386 332.757 C 159.518 333.173,160.161 333.735,160.813 334.006 C 161.466 334.276,162.000 334.741,162.000 335.038 C 162.000 335.336,162.540 335.859,163.200 336.200 C 163.860 336.541,164.400 336.972,164.400 337.157 C 164.400 337.342,165.075 337.946,165.900 338.499 C 166.725 339.052,168.210 340.265,169.200 341.194 C 170.190 342.123,171.405 343.040,171.900 343.232 C 172.395 343.423,172.800 343.855,172.800 344.190 C 172.800 344.526,172.965 344.800,173.166 344.800 C 173.367 344.800,174.042 345.340,174.665 346.000 C 175.288 346.660,176.017 347.200,176.285 347.200 C 176.553 347.200,176.985 347.605,177.246 348.100 C 177.506 348.595,177.918 349.124,178.160 349.275 C 179.064 349.841,183.027 353.516,186.488 356.999 L 190.065 360.597 193.236 360.741 C 194.980 360.820,196.819 360.781,197.324 360.655 C 198.517 360.355,203.200 355.743,203.200 354.867 C 203.200 354.496,203.543 353.978,203.962 353.716 C 204.382 353.455,204.949 352.556,205.224 351.720 C 205.498 350.884,206.039 349.976,206.426 349.702 C 206.813 349.428,207.252 348.474,207.403 347.582 C 207.554 346.689,208.084 345.552,208.582 345.054 C 209.125 344.512,209.599 343.400,209.768 342.275 C 209.923 341.244,210.227 340.400,210.445 340.400 C 210.993 340.400,212.000 337.868,212.000 336.491 C 212.000 335.866,212.424 334.780,212.943 334.077 C 213.571 333.226,213.970 331.994,214.138 330.390 C 214.299 328.849,214.706 327.553,215.269 326.792 C 216.028 325.765,216.171 324.961,216.314 320.901 C 216.423 317.816,216.672 315.895,217.040 315.314 C 217.864 314.010,217.820 301.325,216.987 300.224 C 216.515 299.599,216.401 297.842,216.406 291.224 C 216.417 275.497,215.582 256.669,214.848 256.083 C 213.171 254.745,213.178 135.279,214.855 132.200 C 215.676 130.693,216.164 124.511,216.185 115.370 L 216.200 108.539 214.256 106.370 C 213.187 105.176,211.951 104.002,211.509 103.761 C 210.544 103.233,212.940 102.800,216.827 102.800 C 220.182 102.800,225.227 102.027,226.167 101.368 C 226.758 100.954,228.283 100.800,231.789 100.799 C 238.050 100.797,245.493 100.098,246.961 99.373 C 247.765 98.977,249.614 98.792,252.961 98.774 C 260.236 98.736,272.704 97.636,274.526 96.872 C 276.392 96.090,312.944 96.209,313.600 97.000 C 313.988 97.468,315.081 97.600,318.552 97.600 C 321.001 97.600,323.577 97.764,324.276 97.964 C 325.966 98.449,343.679 98.982,346.477 98.633 C 348.961 98.322,352.000 96.062,352.000 94.525 C 352.000 94.070,352.270 93.474,352.600 93.200 C 354.570 91.565,350.705 82.000,348.074 82.000 C 347.896 82.000,347.241 81.469,346.619 80.819 C 345.997 80.170,344.998 79.531,344.399 79.400 C 343.780 79.264,343.118 78.738,342.864 78.180 C 342.618 77.641,342.129 77.200,341.778 77.200 C 341.426 77.200,340.598 76.660,339.938 76.000 C 339.278 75.340,338.424 74.800,338.039 74.800 C 337.654 74.800,336.917 74.350,336.400 73.800 C 335.883 73.250,335.157 72.800,334.785 72.800 C 334.414 72.800,333.431 72.260,332.600 71.600 C 331.769 70.940,330.783 70.400,330.407 70.400 C 330.031 70.400,329.397 70.038,328.997 69.597 C 328.597 69.155,327.534 68.585,326.635 68.331 C 325.736 68.077,324.820 67.658,324.600 67.400 C 324.002 66.699,322.552 66.000,321.696 66.000 C 321.280 66.000,320.526 65.560,320.021 65.023 C 319.353 64.311,318.492 63.971,316.852 63.772 C 315.613 63.621,314.114 63.251,313.520 62.949 C 312.092 62.223,309.823 62.250,309.200 63.000 M316.600 64.469 C 317.480 64.692,318.482 65.125,318.826 65.432 C 319.170 65.739,320.070 66.201,320.826 66.459 C 321.582 66.717,322.616 67.249,323.125 67.641 C 323.634 68.034,324.714 68.571,325.525 68.835 C 326.336 69.100,327.429 69.650,327.954 70.058 C 328.479 70.466,329.140 70.800,329.423 70.800 C 329.707 70.800,330.447 71.212,331.069 71.716 C 331.691 72.219,332.740 72.861,333.400 73.143 C 334.060 73.424,335.230 74.065,336.000 74.567 C 336.770 75.069,338.300 76.046,339.400 76.739 C 340.500 77.431,341.872 78.403,342.449 78.899 C 343.026 79.395,344.594 80.580,345.933 81.534 C 351.391 85.420,353.124 89.324,351.449 93.955 C 350.030 97.879,345.924 98.597,331.800 97.393 C 315.302 95.987,280.927 95.389,271.200 96.339 C 268.890 96.565,264.210 97.022,260.800 97.355 C 257.390 97.688,253.388 97.969,251.907 97.980 C 249.060 98.001,244.208 98.620,242.200 99.219 C 241.540 99.415,236.680 99.852,231.400 100.190 C 226.120 100.527,221.170 100.969,220.400 101.171 C 219.630 101.373,217.290 101.750,215.200 102.010 C 209.253 102.748,209.038 102.905,211.306 104.843 C 212.328 105.717,213.758 107.280,214.483 108.316 L 215.800 110.200 215.760 115.200 C 215.729 119.038,215.530 120.807,214.901 122.811 C 213.132 128.444,211.683 197.083,212.713 226.400 C 212.925 232.450,213.305 243.250,213.557 250.400 C 213.809 257.550,214.110 264.120,214.225 265.000 C 216.378 281.363,216.761 320.453,214.812 324.891 C 214.400 325.831,213.854 327.759,213.600 329.175 C 213.346 330.591,212.801 332.391,212.389 333.175 C 211.978 333.959,211.343 335.500,210.979 336.600 C 209.292 341.699,208.549 343.574,207.944 344.259 C 207.584 344.667,207.170 345.563,207.024 346.251 C 206.878 346.939,206.318 348.099,205.779 348.828 C 205.241 349.558,204.800 350.352,204.800 350.591 C 204.800 351.886,200.742 357.072,198.275 358.930 C 194.600 361.698,192.249 361.054,186.555 355.722 C 180.032 349.613,169.457 340.091,165.857 337.084 C 159.453 331.735,153.124 326.552,150.751 324.713 C 142.528 318.341,140.000 315.568,140.000 312.918 C 140.000 309.788,141.498 308.961,145.000 310.159 C 145.880 310.460,148.037 310.837,149.794 310.996 C 151.551 311.155,153.842 311.623,154.886 312.034 C 155.930 312.445,158.003 312.975,159.492 313.210 C 160.981 313.446,163.550 314.055,165.200 314.563 C 178.767 318.745,184.798 317.869,186.401 311.482 C 186.633 310.557,187.223 308.630,187.712 307.200 L 188.600 304.600 188.525 246.200 C 188.484 214.080,188.268 179.970,188.045 170.400 C 186.951 123.559,186.658 117.307,185.431 114.723 C 185.075 113.972,184.613 112.309,184.405 111.028 C 183.674 106.538,182.140 105.137,178.740 105.856 C 177.343 106.151,173.950 106.589,171.200 106.828 C 168.450 107.068,164.923 107.611,163.362 108.035 C 161.801 108.460,158.741 108.985,156.562 109.203 C 154.383 109.421,151.262 109.960,149.627 110.400 C 147.992 110.840,146.054 111.200,145.320 111.200 C 144.586 111.200,142.594 111.581,140.893 112.047 C 136.020 113.381,135.088 113.580,133.667 113.590 C 132.934 113.596,131.044 114.038,129.467 114.573 C 127.890 115.109,125.520 115.663,124.200 115.805 C 122.880 115.948,119.976 116.500,117.746 117.032 C 115.516 117.564,113.083 118.000,112.341 118.000 C 111.598 118.000,109.602 118.441,107.906 118.979 C 106.210 119.517,103.692 120.077,102.311 120.222 C 100.930 120.367,98.900 120.893,97.800 121.392 C 96.700 121.891,95.088 122.427,94.219 122.583 C 93.349 122.739,91.909 123.246,91.019 123.710 C 88.611 124.963,82.162 124.966,79.552 123.714 C 78.536 123.226,76.971 122.663,76.076 122.462 C 75.181 122.260,73.979 121.727,73.405 121.276 C 72.832 120.824,71.833 120.339,71.186 120.197 C 70.539 120.055,69.896 119.755,69.758 119.531 C 69.619 119.308,68.402 118.601,67.053 117.962 C 63.716 116.381,61.967 115.200,58.267 112.029 C 52.941 107.464,51.545 102.253,54.909 99.496 L 56.618 98.095 68.409 97.642 C 74.894 97.392,81.280 97.016,82.600 96.806 C 86.661 96.160,92.619 95.600,95.431 95.600 C 98.477 95.600,104.712 94.924,106.800 94.368 C 107.570 94.162,110.990 93.726,114.400 93.399 C 119.767 92.883,125.039 92.046,126.859 91.421 C 127.156 91.318,129.560 91.036,132.200 90.793 C 134.840 90.550,137.645 90.183,138.434 89.978 C 139.222 89.773,141.742 89.429,144.034 89.214 C 149.863 88.667,154.821 87.985,156.000 87.567 C 156.550 87.371,160.330 86.939,164.400 86.606 C 168.470 86.273,172.430 85.833,173.200 85.628 C 175.657 84.975,180.067 84.429,184.708 84.204 C 187.188 84.083,189.978 83.731,190.908 83.421 C 191.839 83.112,194.760 82.661,197.400 82.421 C 204.043 81.815,204.628 81.736,207.800 81.020 C 209.340 80.672,213.210 80.209,216.400 79.991 C 219.590 79.774,223.820 79.241,225.800 78.808 C 227.780 78.374,231.967 77.826,235.103 77.588 C 238.240 77.351,242.020 76.892,243.503 76.568 C 244.987 76.244,248.180 75.816,250.600 75.616 C 253.020 75.416,256.529 74.883,258.397 74.433 C 260.266 73.982,263.686 73.409,265.997 73.161 C 268.309 72.912,271.013 72.388,272.006 71.997 C 272.999 71.606,275.249 71.156,277.006 70.998 C 278.763 70.840,281.165 70.377,282.344 69.970 C 283.523 69.563,285.593 69.120,286.944 68.987 C 288.295 68.853,290.750 68.319,292.400 67.800 C 294.050 67.281,296.480 66.731,297.800 66.577 C 299.120 66.423,300.912 65.937,301.783 65.498 C 304.978 63.885,312.293 63.377,316.600 64.469 " stroke="none" fill="#bcbcbc" fill-rule="evenodd"></path></g></svg>